<svg width="57" height="47" viewBox="0 0 57 47" fill="none" xmlns="http://www.w3.org/2000/svg">
<path d="M22.1667 47C15.9917 47 10.754 44.8725 6.45367 40.6174C2.15333 36.3623 0.00211111 31.1788 0 25.0667V6.26667C0 4.54333 0.620666 3.06858 1.862 1.8424C3.10333 0.616222 4.59378 0.00208889 6.33333 0H45.9167C48.9778 0 51.5903 1.07056 53.7542 3.21167C55.9181 5.35278 57 7.93778 57 10.9667C57 13.9956 55.9181 16.5806 53.7542 18.7217C51.5903 20.8628 48.9778 21.9333 45.9167 21.9333H44.3333V25.0667C44.3333 31.1767 42.1832 36.3602 37.8828 40.6174C33.5825 44.8746 28.3438 47.0021 22.1667 47ZM6.33333 15.6667H38V6.26667H6.33333V15.6667ZM44.3333 15.6667H45.9167C47.2361 15.6667 48.3582 15.2102 49.2828 14.2974C50.2075 13.3846 50.6688 12.2743 50.6667 10.9667C50.6646 9.65902 50.2033 8.54982 49.2828 7.63907C48.3624 6.72831 47.2403 6.27084 45.9167 6.26667H44.3333V15.6667Z" fill="black"/>
</svg>
