<svg width="34" height="28" viewBox="0 0 34 28" fill="none" xmlns="http://www.w3.org/2000/svg">
<path d="M13.2222 28C9.53889 28 6.41467 26.7325 3.84956 24.1976C1.28444 21.6627 0.00125926 18.5746 0 14.9333V3.73333C0 2.70667 0.370222 1.82809 1.11067 1.0976C1.85111 0.367111 2.74015 0.00124444 3.77778 0H27.3889C29.2148 0 30.7731 0.637778 32.0639 1.91333C33.3546 3.18889 34 4.72889 34 6.53333C34 8.33778 33.3546 9.87778 32.0639 11.1533C30.7731 12.4289 29.2148 13.0667 27.3889 13.0667H26.4444V14.9333C26.4444 18.5733 25.1619 21.6614 22.5968 24.1976C20.0317 26.7338 16.9068 28.0012 13.2222 28ZM3.77778 9.33333H22.6667V3.73333H3.77778V9.33333ZM26.4444 9.33333H27.3889C28.1759 9.33333 28.8452 9.06142 29.3968 8.5176C29.9483 7.97378 30.2235 7.31236 30.2222 6.53333C30.221 5.75431 29.9458 5.09351 29.3968 4.55093C28.8477 4.00836 28.1784 3.73582 27.3889 3.73333H26.4444V9.33333Z" fill="black"/>
</svg>
