<svg width="67" height="50" viewBox="0 0 67 50" fill="none" xmlns="http://www.w3.org/2000/svg">
<path d="M23.408 49.768C18.672 49.768 14.576 48.7867 11.12 46.824C7.664 44.8187 4.99733 42.0027 3.12 38.376C1.24267 34.7067 0.304 30.376 0.304 25.384C0.304 20.4347 1.28533 16.1253 3.248 12.456C5.21067 8.78667 7.96267 5.94933 11.504 3.944C15.0453 1.896 19.1627 0.871998 23.856 0.871998C27.824 0.871998 31.344 1.59733 34.416 3.048C37.5307 4.456 40.0693 6.46133 42.032 9.064C43.9947 11.6667 45.2107 14.7387 45.68 18.28H34.736C34.0533 15.8907 32.7307 14.056 30.768 12.776C28.848 11.496 26.4587 10.856 23.6 10.856C21.04 10.856 18.8213 11.432 16.944 12.584C15.1093 13.736 13.7013 15.4 12.72 17.576C11.7387 19.7093 11.248 22.2907 11.248 25.32C11.248 28.264 11.7387 30.824 12.72 33C13.744 35.176 15.1733 36.8613 17.008 38.056C18.8853 39.208 21.0827 39.784 23.6 39.784C26.5013 39.784 28.9547 39.1227 30.96 37.8C33.008 36.4347 34.352 34.5787 34.992 32.232H45.744C45.1893 35.7307 43.888 38.8027 41.84 41.448C39.8347 44.0933 37.2533 46.1413 34.096 47.592C30.9387 49.0427 27.376 49.768 23.408 49.768Z" fill="#065A32"/>
<path d="M43.718 49.768C38.982 49.768 34.886 48.7867 31.43 46.824C27.974 44.8187 25.3073 42.0027 23.43 38.376C21.5527 34.7067 20.614 30.376 20.614 25.384C20.614 20.4347 21.5953 16.1253 23.558 12.456C25.5207 8.78667 28.2727 5.94933 31.814 3.944C35.3553 1.896 39.4727 0.871998 44.166 0.871998C48.134 0.871998 51.654 1.59733 54.726 3.048C57.8407 4.456 60.3793 6.46133 62.342 9.064C64.3047 11.6667 65.5207 14.7387 65.99 18.28H55.046C54.3633 15.8907 53.0407 14.056 51.078 12.776C49.158 11.496 46.7687 10.856 43.91 10.856C41.35 10.856 39.1313 11.432 37.254 12.584C35.4193 13.736 34.0113 15.4 33.03 17.576C32.0487 19.7093 31.558 22.2907 31.558 25.32C31.558 28.264 32.0487 30.824 33.03 33C34.054 35.176 35.4833 36.8613 37.318 38.056C39.1953 39.208 41.3927 39.784 43.91 39.784C46.8113 39.784 49.2647 39.1227 51.27 37.8C53.318 36.4347 54.662 34.5787 55.302 32.232H66.054C65.4993 35.7307 64.198 38.8027 62.15 41.448C60.1447 44.0933 57.5633 46.1413 54.406 47.592C51.2487 49.0427 47.686 49.768 43.718 49.768Z" fill="black"/>
</svg>
