<svg width="570" height="572" viewBox="0 0 570 572" fill="none" xmlns="http://www.w3.org/2000/svg">
<path d="M143.629 101.128C143.629 91.426 145.771 82.921 150.055 75.613C154.339 68.179 160.261 62.383 167.821 58.225C175.381 54.067 183.949 51.988 193.525 51.988C203.227 51.988 211.795 54.067 219.229 58.225C226.789 62.383 232.711 68.179 236.995 75.613C241.279 82.921 243.421 91.426 243.421 101.128C243.421 110.83 241.279 119.398 236.995 126.832C232.711 134.14 226.789 139.873 219.229 144.031C211.795 148.189 203.227 150.268 193.525 150.268C183.949 150.268 175.381 148.189 167.821 144.031C160.261 139.873 154.339 134.14 150.055 126.832C145.771 119.398 143.629 110.83 143.629 101.128ZM166.687 101.128C166.687 106.798 167.821 111.775 170.089 116.059C172.483 120.343 175.633 123.682 179.539 126.076C183.571 128.47 188.233 129.667 193.525 129.667C198.817 129.667 203.479 128.47 207.511 126.076C211.543 123.682 214.693 120.343 216.961 116.059C219.229 111.775 220.363 106.798 220.363 101.128C220.363 95.332 219.229 90.355 216.961 86.197C214.693 81.913 211.543 78.574 207.511 76.18C203.479 73.786 198.817 72.589 193.525 72.589C188.233 72.589 183.571 73.786 179.539 76.18C175.633 78.574 172.483 81.913 170.089 86.197C167.821 90.355 166.687 95.332 166.687 101.128ZM308.948 54.256V75.613H300.443C292.001 75.613 285.386 77.881 280.598 82.417C275.81 86.827 273.416 93.568 273.416 102.64V148H250.358V54.823H272.093L273.983 74.101H271.715C272.975 67.927 275.936 62.887 280.598 58.981C285.26 55.075 291.308 53.122 298.742 53.122C300.38 53.122 302.018 53.185 303.656 53.311C305.294 53.437 307.058 53.752 308.948 54.256ZM336.273 148H313.215V54.634H334.572L336.462 66.73C339.36 62.068 343.455 58.414 348.747 55.768C354.165 53.122 360.024 51.799 366.324 51.799C378.042 51.799 386.862 55.264 392.784 62.194C398.832 69.124 401.856 78.574 401.856 90.544V148H378.798V96.025C378.798 88.213 377.034 82.417 373.506 78.637C369.978 74.731 365.19 72.778 359.142 72.778C351.96 72.778 346.353 75.046 342.321 79.582C338.289 84.118 336.273 90.166 336.273 97.726V148ZM454.94 150.457C445.742 150.457 437.552 148.378 430.37 144.22C423.314 139.936 417.77 134.14 413.738 126.832C409.706 119.398 407.69 110.893 407.69 101.317C407.69 91.615 409.643 83.047 413.549 75.613C417.455 68.179 422.936 62.383 429.992 58.225C437.048 53.941 445.112 51.799 454.184 51.799C463.634 51.799 471.761 53.815 478.565 57.847C485.369 61.753 490.598 67.234 494.252 74.29C498.032 81.346 499.922 89.788 499.922 99.616V106.609L419.786 106.798L420.164 92.056H477.053C477.053 85.63 474.974 80.464 470.816 76.558C466.784 72.652 461.303 70.699 454.373 70.699C448.955 70.699 444.356 71.833 440.576 74.101C436.922 76.369 434.15 79.771 432.26 84.307C430.37 88.843 429.425 94.387 429.425 100.939C429.425 111.019 431.567 118.642 435.851 123.808C440.261 128.974 446.75 131.557 455.318 131.557C461.618 131.557 466.784 130.36 470.816 127.966C474.974 125.572 477.683 122.17 478.943 117.76H500.3C498.284 127.966 493.244 135.967 485.18 141.763C477.242 147.559 467.162 150.457 454.94 150.457ZM565.626 54.256V75.613H557.121C548.679 75.613 542.064 77.881 537.276 82.417C532.488 86.827 530.094 93.568 530.094 102.64V148H507.036V54.823H528.771L530.661 74.101H528.393C529.653 67.927 532.614 62.887 537.276 58.981C541.938 55.075 547.986 53.122 555.42 53.122C557.058 53.122 558.696 53.185 560.334 53.311C561.972 53.437 563.736 53.752 565.626 54.256Z" fill="black"/>
<path d="M73.71 160.268C60.228 160.268 48.51 157.37 38.556 151.574C28.728 145.652 21.042 137.399 15.498 126.815C10.08 116.105 7.371 103.505 7.371 89.015C7.371 74.651 10.143 62.114 15.687 51.404C21.357 40.694 29.295 32.378 39.501 26.456C49.707 20.534 61.488 17.573 74.844 17.573C85.806 17.573 95.634 19.589 104.328 23.621C113.022 27.653 120.204 33.323 125.874 40.631C131.544 47.813 135.135 56.381 136.647 66.335H111.132C108.738 58.271 104.265 52.034 97.713 47.624C91.287 43.088 83.412 40.82 74.088 40.82C65.772 40.82 58.464 42.773 52.164 46.679C45.99 50.585 41.202 56.129 37.8 63.311C34.398 70.493 32.697 79.061 32.697 89.015C32.697 98.591 34.398 107.033 37.8 114.341C41.202 121.523 45.99 127.13 52.164 131.162C58.464 135.068 65.772 137.021 74.088 137.021C83.538 137.021 91.602 134.753 98.28 130.217C105.084 125.681 109.62 119.57 111.888 111.884L137.025 111.884C135.261 121.46 131.418 129.902 125.496 137.21C119.7 144.518 112.329 150.188 103.383 154.22C94.563 158.252 84.672 160.268 73.71 160.268Z" fill="#065A32"/>
<path d="M69.872 167.426C79.574 167.426 88.079 169.568 95.387 173.852C102.821 178.136 108.617 184.058 112.775 191.618C116.933 199.178 119.012 207.746 119.012 217.322C119.012 227.024 116.933 235.592 112.775 243.026C108.617 250.586 102.821 256.508 95.387 260.792C88.079 265.076 79.574 267.218 69.872 267.218C60.17 267.218 51.602 265.076 44.168 260.792C36.86 256.508 31.127 250.586 26.969 243.026C22.811 235.592 20.732 227.024 20.732 217.322C20.732 207.746 22.811 199.178 26.969 191.618C31.127 184.058 36.86 178.136 44.168 173.852C51.602 169.568 60.17 167.426 69.872 167.426ZM69.872 190.484C64.202 190.484 59.225 191.618 54.941 193.886C50.657 196.28 47.318 199.43 44.924 203.336C42.53 207.368 41.333 212.03 41.333 217.322C41.333 222.614 42.53 227.276 44.924 231.308C47.318 235.34 50.657 238.49 54.941 240.758C59.225 243.026 64.202 244.16 69.872 244.16C75.668 244.16 80.645 243.026 84.803 240.758C89.087 238.49 92.426 235.34 94.82 231.308C97.214 227.276 98.411 222.614 98.411 217.322C98.411 212.03 97.214 207.368 94.82 203.336C92.426 199.43 89.087 196.28 84.803 193.886C80.645 191.618 75.668 190.484 69.872 190.484ZM116.366 264.525V327.651H97.088L97.088 264.525H116.366ZM162.671 323.304H143.015C143.015 321.918 143.015 320.532 143.015 319.146C143.015 317.886 143.015 316.563 143.015 315.177C143.015 309.381 141.629 305.538 138.857 303.648C136.085 301.758 132.368 300.813 127.706 300.813H23V277.944H127.706C136.274 277.944 143.141 279.33 148.307 282.102C153.599 284.874 157.442 288.78 159.836 293.82C162.356 298.86 163.616 304.719 163.616 311.397C163.616 313.287 163.553 315.24 163.427 317.256C163.301 319.272 163.049 321.288 162.671 323.304ZM116.366 326.328L116.366 384.162H97.088V326.328H116.366ZM162.671 384.351H143.015C143.015 382.965 143.015 381.579 143.015 380.193C143.015 378.933 143.015 377.673 143.015 376.413C143.015 370.491 141.629 366.585 138.857 364.695C136.085 362.805 132.368 361.86 127.706 361.86H23V338.991H127.706C136.274 338.991 143.141 340.377 148.307 343.149C153.599 345.921 157.442 349.827 159.836 354.867C162.356 359.907 163.616 365.766 163.616 372.444C163.616 374.334 163.553 376.287 163.427 378.303C163.301 380.319 163.049 382.335 162.671 384.351ZM20.543 426.585C20.543 417.387 22.622 409.197 26.78 402.015C31.064 394.959 36.86 389.415 44.168 385.383C51.602 381.351 60.107 379.335 69.683 379.335C79.385 379.335 87.953 381.288 95.387 385.194C102.821 389.1 108.617 394.581 112.775 401.637C117.059 408.693 119.201 416.757 119.201 425.829C119.201 435.279 117.185 443.406 113.153 450.21C109.247 457.014 103.766 462.243 96.71 465.897C89.654 469.677 81.212 471.567 71.384 471.567H64.391L64.202 391.431L78.944 391.809V448.698C85.37 448.698 90.536 446.619 94.442 442.461C98.348 438.429 100.301 432.948 100.301 426.018C100.301 420.6 99.167 416.001 96.899 412.221C94.631 408.567 91.229 405.795 86.693 403.905C82.157 402.015 76.613 401.07 70.061 401.07C59.981 401.07 52.358 403.212 47.192 407.496C42.026 411.906 39.443 418.395 39.443 426.963C39.443 433.263 40.64 438.429 43.034 442.461C45.428 446.619 48.83 449.328 53.24 450.588V471.945C43.034 469.929 35.033 464.889 29.237 456.825C23.441 448.887 20.543 438.807 20.543 426.585ZM20.543 520.45C20.543 511.252 22.622 503.062 26.78 495.88C31.064 488.824 36.86 483.28 44.168 479.248C51.602 475.216 60.107 473.2 69.683 473.2C79.385 473.2 87.953 475.153 95.387 479.059C102.821 482.965 108.617 488.446 112.775 495.502C117.059 502.558 119.201 510.622 119.201 519.694C119.201 529.144 117.185 537.271 113.153 544.075C109.247 550.879 103.766 556.108 96.71 559.762C89.654 563.542 81.212 565.432 71.384 565.432H64.391L64.202 485.296L78.944 485.674L78.944 542.563C85.37 542.563 90.536 540.484 94.442 536.326C98.348 532.294 100.301 526.813 100.301 519.883C100.301 514.465 99.167 509.866 96.899 506.086C94.631 502.432 91.229 499.66 86.693 497.77C82.157 495.88 76.613 494.935 70.061 494.935C59.981 494.935 52.358 497.077 47.192 501.361C42.026 505.771 39.443 512.26 39.443 520.828C39.443 527.128 40.64 532.294 43.034 536.326C45.428 540.484 48.83 543.193 53.24 544.453V565.81C43.034 563.794 35.033 558.754 29.237 550.69C23.441 542.752 20.543 532.672 20.543 520.45Z" fill="black"/>
</svg>
